<svg version="1.2" xmlns="http://www.w3.org/2000/svg" viewBox="0 0 520 520" width="520" height="520"><style>.a{fill:#fff}</style><path  d="m50 161c0-60.8 49.2-110 110-110h200c60.8 0 110 49.2 110 110v197c0 60.8-49.2 110-110 110h-200c-60.8 0-110-49.2-110-110z"/><path class="a" d="m110 312.4v-104.8q0-7.1 1.2-12.9 1.3-5.8 5.2-9.2 4-3.5 12.1-3.5 8.1 0 12 3.5 4.1 3.4 5.3 9.2 1.2 5.8 1.2 12.9v104.8q0 7.2-1.2 13.1-1.1 5.8-5.1 9.2-3.9 3.3-12.2 3.3-8 0-12-3.3-3.9-3.5-5.3-9.3-1.2-5.8-1.2-13zm107.2 7.1q0 9.5-4.8 14-4.8 4.5-13.5 4.5-18.5 0-18.5-18.5 0-9.6 4.8-13.9 4.8-4.4 13.7-4.4 9.3 0 13.7 4.4 4.6 4.3 4.6 13.9zm26.5-26.7v-66.7q0-10.9 3.1-18.2 3.2-7.6 8.1-12.6 4.9-5 10.7-7.8 2.9-1.5 5.6-2.5 2.9-1 5.7-1.8 5.6-1.4 9.9-1.7 4.5-0.4 6.6-0.4h3.8q2.1 0 6.6 0.4 4.4 0.3 9.9 1.7 5.6 1.4 11.4 4.3 5.5 2.6 10.5 7.9 4.7 5 7.7 12.6 3.2 7.4 3.2 18.1v66.7q0 11-3.1 18.7-3.1 7.7-7.8 12.8-4.6 5.1-10.5 8-5.6 2.9-11.4 4.5-5.5 1.4-9.9 1.8-4.5 0.3-6.6 0.3h-3.8q-2 0-6.6-0.3-4.4-0.4-9.9-1.8-5.4-1.5-11.3-4.5-5.8-2.9-10.7-8-4.8-5.1-8.1-12.8-3.1-7.7-3.1-18.7zm37-68.5v72.7q0.1 3.9 1.9 7.2 1.5 2.8 4.4 5.1 3 2.2 8.4 2.2 5.4 0 8.3-2.2 2.9-2.3 4.3-5.1 1.6-3.3 1.9-7.2v-72.7q-0.3-3.9-1.9-7.2-1.4-2.7-4.3-4.9-2.9-2.3-8.3-2.3-5.4 0-8.4 2.3-2.9 2.2-4.4 4.9-1.8 3.2-1.9 7.2zm128.8 95.2q0 9.5-4.8 14-4.8 4.5-13.5 4.5-18.5 0-18.5-18.5 0-9.6 4.8-13.9 4.8-4.4 13.7-4.4 9.3 0 13.7 4.4 4.6 4.3 4.6 13.9z"/></svg>